<svg width="48" height="48" viewBox="0 0 48 48" fill="none" xmlns="http://www.w3.org/2000/svg">
<rect width="48" height="48" rx="24" fill="#01370C"/>
<path d="M26.9848 15C27.2937 15.0234 27.6026 15.0469 27.911 15.0712C28.1027 15.0867 28.2934 15.1064 28.4893 15.1247V17.9879C28.4106 17.9879 28.337 17.9879 28.2629 17.9879C27.6537 17.9977 27.0444 17.9804 26.4379 18.0254C25.7855 18.0723 25.4011 18.4116 25.3599 19.0645C25.3041 19.9494 25.3458 20.8403 25.3458 21.7482H28.2226C28.0886 22.8262 27.9574 23.8784 27.8243 24.946H25.3308C25.3257 25.0103 25.3177 25.0604 25.3177 25.1106C25.3177 27.6874 25.3177 30.2652 25.3177 32.8439C25.3177 32.896 25.3275 32.948 25.3322 33H22.0983C22.1016 32.9475 22.1077 32.895 22.1077 32.843C22.1077 30.2724 22.1077 27.7016 22.1077 25.1307V24.9582H19.5107V21.7571H22.1086C22.1086 21.6732 22.1086 21.6057 22.1086 21.5382C22.1166 20.5957 22.0913 19.6513 22.1419 18.7111C22.2014 17.605 22.5815 16.6193 23.4542 15.8774C24.0368 15.375 24.7295 15.1317 25.4817 15.0352C25.5385 15.0281 25.5933 15.0117 25.6505 15H26.9848Z" fill="white"/>
</svg>
