<svg width="48" height="48" viewBox="0 0 48 48" fill="none" xmlns="http://www.w3.org/2000/svg">
<rect width="48" height="48" rx="24" fill="#01370C"/>
<path d="M20.408 12H27.5835C28.1437 12.0311 28.7039 12.0603 29.2642 12.0942C30.243 12.1516 31.2043 12.3201 32.1036 12.725C34.3111 13.7179 35.474 15.4862 35.8356 17.8313C35.8996 18.2456 35.9297 18.6651 35.9768 19.0817V28.7429C35.9627 28.8503 35.9472 28.9576 35.9344 29.065C35.8723 29.5913 35.8455 30.1257 35.7395 30.6436C35.2631 32.9373 33.9675 34.5667 31.7627 35.425C30.7062 35.8364 29.5933 35.9485 28.4728 35.9598C25.9333 35.9857 23.3934 36.0097 20.8534 35.996C19.6058 35.9895 18.3521 35.9843 17.1247 35.6867C15.1375 35.2042 13.6615 34.0771 12.784 32.2165C12.2439 31.0715 12.0778 29.8394 12.0655 28.5914C12.0382 25.9949 12.0095 23.3999 12.0302 20.8039C12.0334 19.7105 12.1121 18.6187 12.2656 17.5361C12.5123 15.8605 13.3216 14.4637 14.6959 13.4326C15.8729 12.5489 17.2382 12.1977 18.6793 12.0956C19.2551 12.0551 19.8318 12.0315 20.408 12ZM24.0285 33.892V33.8553C24.6617 33.8553 25.2954 33.8742 25.9277 33.8516C27.285 33.8045 28.6526 33.8181 29.9968 33.6501C31.8432 33.4189 33.0955 32.3596 33.5494 30.5216C33.7325 29.7792 33.7961 28.9929 33.8093 28.2246C33.8507 25.8104 33.8626 23.3955 33.845 20.98C33.8449 20.0044 33.7863 19.0296 33.6694 18.061C33.4242 16.1303 32.2203 14.8248 30.3178 14.4448C29.4968 14.281 28.6437 14.2316 27.8033 14.2179C25.7017 14.1826 23.5991 14.1892 21.4946 14.1963C20.2922 14.2 19.0865 14.1845 17.8949 14.394C16.0758 14.7146 14.8277 15.8695 14.4558 17.6835C14.2952 18.4655 14.2425 19.2785 14.2255 20.0793C14.1846 22.0011 14.169 23.9248 14.1907 25.8471C14.2058 27.2049 14.2415 28.5673 14.3715 29.9181C14.4986 31.2363 15.121 32.3267 16.2782 33.0451C17.0607 33.5305 17.9401 33.7249 18.8464 33.7574C20.5738 33.8191 22.3006 33.8478 24.0285 33.892Z" fill="white"/>
<path d="M17.8469 24.0053C17.8521 20.5967 20.6293 17.8285 24.0285 17.8426C27.445 17.8567 30.2044 20.6288 30.1832 24.0256C30.162 27.4355 27.4107 30.1807 24.0158 30.1775C20.6109 30.1727 17.8417 27.4026 17.8469 24.0053ZM20.0201 24.0053C20.0193 24.796 20.253 25.5692 20.6917 26.227C21.1304 26.8848 21.7544 27.3977 22.4847 27.7008C23.2149 28.0039 24.0187 28.0836 24.7943 27.9298C25.5699 27.7759 26.2824 27.3955 26.8417 26.8366C27.401 26.2777 27.782 25.5654 27.9364 24.7899C28.0907 24.0145 28.0116 23.2106 27.7091 22.4801C27.4065 21.7496 26.894 21.1253 26.2365 20.6861C25.579 20.2469 24.806 20.0127 24.0153 20.013C23.4905 20.0116 22.9706 20.114 22.4855 20.3141C22.0004 20.5143 21.5596 20.8083 21.1884 21.1792C20.8171 21.5502 20.5229 21.9908 20.3224 22.4757C20.1219 22.9607 20.0192 23.4805 20.0201 24.0053Z" fill="white"/>
<path d="M30.4581 16.1623C30.835 16.1758 31.1914 16.337 31.4504 16.611C31.7095 16.8851 31.8504 17.25 31.8427 17.627C31.835 18.004 31.6794 18.3629 31.4095 18.6261C31.1395 18.8894 30.7768 19.036 30.3998 19.0342C30.2092 19.0333 30.0208 18.9945 29.8454 18.92C29.6701 18.8456 29.5113 18.737 29.3782 18.6007C29.2452 18.4643 29.1407 18.3028 29.0707 18.1256C29.0007 17.9484 28.9666 17.7591 28.9705 17.5686C28.9744 17.3781 29.0161 17.1903 29.0932 17.0161C29.1704 16.8419 29.2814 16.6848 29.4198 16.5539C29.5583 16.4231 29.7214 16.321 29.8996 16.2538C30.0779 16.1866 30.2677 16.1555 30.4581 16.1623Z" fill="white"/>
</svg>
