<svg width="48" height="48" viewBox="0 0 48 48" fill="none" xmlns="http://www.w3.org/2000/svg">
<rect width="48" height="48" rx="24" fill="#01370C"/>
<path d="M12.9566 30.9725C15.4153 31.1926 17.609 30.5969 19.6113 29.0911C18.2562 29.0125 17.1623 28.4986 16.295 27.5273C15.8717 27.053 15.4923 26.3738 15.4088 25.938C16.0593 26.016 16.6994 26.0328 17.3656 25.848C14.8922 25.229 13.7339 23.07 13.8016 21.3707C14.1225 21.4921 14.4342 21.6357 14.76 21.7257C15.0866 21.8075 15.4201 21.8583 15.7563 21.8775C14.6797 21.0541 14.0217 19.9939 13.8591 18.6631C13.7301 17.6127 13.9621 16.6261 14.4472 15.8445C16.9011 18.7304 20.0032 20.3256 23.81 20.582C23.7005 20.0045 23.6846 19.4132 23.7628 18.8306C23.9894 17.1503 25.3646 15.5892 27.0081 15.1707C28.6931 14.7414 30.1722 15.1218 31.4453 16.3117C31.4839 16.3425 31.5284 16.365 31.576 16.3779C31.6237 16.3908 31.6735 16.3937 31.7223 16.3865C32.5992 16.2074 33.4428 15.8927 34.2228 15.4537C34.277 15.4222 34.336 15.3962 34.4342 15.3453C34.0883 16.4082 33.4427 17.1855 32.5679 17.7969C33.4167 17.7146 34.2168 17.4761 34.9957 17.1535L35.0434 17.2077C34.6775 17.6354 34.3301 18.081 33.9403 18.4859C33.6314 18.8062 33.266 19.0713 32.9376 19.3738C32.8583 19.4473 32.8094 19.5479 32.8004 19.6556C32.7955 24.3368 30.9526 28.097 27.1398 30.8375C25.5321 31.9937 23.6962 32.6193 21.7329 32.8767C19.8979 33.1278 18.0307 32.9944 16.2501 32.4848C15.1202 32.1589 14.0416 31.6759 13.046 31.05C13.0147 31.0259 12.9849 31.0001 12.9566 30.9725V30.9725Z" fill="white"/>
</svg>
